<mxfile host="app.diagrams.net" modified="2024-02-11T18:02:16.686Z" agent="Mozilla/5.0 (Windows NT 10.0; Win64; x64; rv:122.0) Gecko/20100101 Firefox/122.0" etag="sS1lUAokqB6T6WTVkACF" version="23.1.2" type="device">
  <diagram name="Page-1" id="r5ffIwT0-qjKUBOTaA5o">
    <mxGraphModel dx="1368" dy="326" grid="0" gridSize="10" guides="1" tooltips="1" connect="1" arrows="1" fold="1" page="0" pageScale="1" pageWidth="850" pageHeight="1100" math="0" shadow="0">
      <root>
        <mxCell id="0" />
        <mxCell id="1" parent="0" />
        <mxCell id="_A-_bPxh8dxzWCv0fmBQ-1" value="&lt;div&gt;First Choice of&lt;/div&gt;&lt;div&gt;User/Admin&lt;br&gt;&lt;/div&gt;" style="rounded=0;whiteSpace=wrap;html=1;fontSize=16;" vertex="1" parent="1">
          <mxGeometry x="117" y="65" width="160" height="80" as="geometry" />
        </mxCell>
        <mxCell id="_A-_bPxh8dxzWCv0fmBQ-8" value="" style="edgeStyle=none;orthogonalLoop=1;jettySize=auto;html=1;rounded=0;fontSize=12;curved=1;startSize=8;endSize=8;exitX=1;exitY=1;exitDx=0;exitDy=0;entryX=0.3;entryY=-0.037;entryDx=0;entryDy=0;entryPerimeter=0;" edge="1" parent="1" source="_A-_bPxh8dxzWCv0fmBQ-1" target="_A-_bPxh8dxzWCv0fmBQ-11">
          <mxGeometry width="120" relative="1" as="geometry">
            <mxPoint x="200" y="200" as="sourcePoint" />
            <mxPoint x="336" y="213" as="targetPoint" />
            <Array as="points" />
          </mxGeometry>
        </mxCell>
        <mxCell id="_A-_bPxh8dxzWCv0fmBQ-9" value="" style="edgeStyle=none;orthogonalLoop=1;jettySize=auto;html=1;rounded=0;fontSize=12;curved=1;startSize=8;endSize=8;exitX=0;exitY=1;exitDx=0;exitDy=0;" edge="1" parent="1" source="_A-_bPxh8dxzWCv0fmBQ-1" target="_A-_bPxh8dxzWCv0fmBQ-10">
          <mxGeometry width="120" relative="1" as="geometry">
            <mxPoint x="200" y="200" as="sourcePoint" />
            <mxPoint x="73" y="218" as="targetPoint" />
            <Array as="points" />
          </mxGeometry>
        </mxCell>
        <mxCell id="_A-_bPxh8dxzWCv0fmBQ-10" value="Admin" style="rounded=0;whiteSpace=wrap;html=1;fontSize=16;" vertex="1" parent="1">
          <mxGeometry x="-73" y="211" width="160" height="80" as="geometry" />
        </mxCell>
        <mxCell id="_A-_bPxh8dxzWCv0fmBQ-11" value="User" style="rounded=0;whiteSpace=wrap;html=1;fontSize=16;" vertex="1" parent="1">
          <mxGeometry x="326" y="211" width="160" height="80" as="geometry" />
        </mxCell>
        <mxCell id="_A-_bPxh8dxzWCv0fmBQ-12" value="" style="edgeStyle=none;orthogonalLoop=1;jettySize=auto;html=1;rounded=0;fontSize=12;curved=1;startSize=8;endSize=8;exitX=0.131;exitY=0.988;exitDx=0;exitDy=0;exitPerimeter=0;entryX=0.441;entryY=0.265;entryDx=0;entryDy=0;entryPerimeter=0;" edge="1" parent="1" source="_A-_bPxh8dxzWCv0fmBQ-10" target="_A-_bPxh8dxzWCv0fmBQ-18">
          <mxGeometry width="120" relative="1" as="geometry">
            <mxPoint x="200" y="303" as="sourcePoint" />
            <mxPoint x="-103" y="316" as="targetPoint" />
            <Array as="points" />
          </mxGeometry>
        </mxCell>
        <mxCell id="_A-_bPxh8dxzWCv0fmBQ-13" value="" style="edgeStyle=none;orthogonalLoop=1;jettySize=auto;html=1;rounded=0;fontSize=12;curved=1;startSize=8;endSize=8;exitX=0.838;exitY=1.038;exitDx=0;exitDy=0;exitPerimeter=0;entryX=0.5;entryY=0;entryDx=0;entryDy=0;entryPerimeter=0;" edge="1" parent="1" source="_A-_bPxh8dxzWCv0fmBQ-10" target="_A-_bPxh8dxzWCv0fmBQ-24">
          <mxGeometry width="120" relative="1" as="geometry">
            <mxPoint x="80" y="290.96" as="sourcePoint" />
            <mxPoint x="111" y="355" as="targetPoint" />
            <Array as="points" />
          </mxGeometry>
        </mxCell>
        <mxCell id="_A-_bPxh8dxzWCv0fmBQ-14" value="" style="edgeStyle=none;orthogonalLoop=1;jettySize=auto;html=1;rounded=0;fontSize=12;curved=1;startSize=8;endSize=8;exitX=0.881;exitY=1.013;exitDx=0;exitDy=0;exitPerimeter=0;entryX=0.5;entryY=0;entryDx=0;entryDy=0;" edge="1" parent="1" source="_A-_bPxh8dxzWCv0fmBQ-11" target="_A-_bPxh8dxzWCv0fmBQ-27">
          <mxGeometry width="120" relative="1" as="geometry">
            <mxPoint x="444.92" y="290.96" as="sourcePoint" />
            <mxPoint x="494.92" y="351.96" as="targetPoint" />
            <Array as="points" />
          </mxGeometry>
        </mxCell>
        <mxCell id="_A-_bPxh8dxzWCv0fmBQ-15" value="" style="edgeStyle=none;orthogonalLoop=1;jettySize=auto;html=1;rounded=0;fontSize=12;curved=1;startSize=8;endSize=8;exitX=0.188;exitY=0.988;exitDx=0;exitDy=0;exitPerimeter=0;entryX=0.5;entryY=0;entryDx=0;entryDy=0;" edge="1" parent="1" source="_A-_bPxh8dxzWCv0fmBQ-11" target="_A-_bPxh8dxzWCv0fmBQ-25">
          <mxGeometry width="120" relative="1" as="geometry">
            <mxPoint x="354" y="293" as="sourcePoint" />
            <mxPoint x="330" y="353" as="targetPoint" />
            <Array as="points" />
          </mxGeometry>
        </mxCell>
        <mxCell id="_A-_bPxh8dxzWCv0fmBQ-16" value="" style="edgeStyle=none;orthogonalLoop=1;jettySize=auto;html=1;rounded=0;fontSize=12;curved=1;startSize=8;endSize=8;exitX=0.556;exitY=0.988;exitDx=0;exitDy=0;exitPerimeter=0;entryX=0.5;entryY=0;entryDx=0;entryDy=0;" edge="1" parent="1" source="_A-_bPxh8dxzWCv0fmBQ-11" target="_A-_bPxh8dxzWCv0fmBQ-26">
          <mxGeometry width="120" relative="1" as="geometry">
            <mxPoint x="413" y="290.96" as="sourcePoint" />
            <mxPoint x="413" y="354" as="targetPoint" />
            <Array as="points" />
          </mxGeometry>
        </mxCell>
        <mxCell id="_A-_bPxh8dxzWCv0fmBQ-17" value="" style="edgeStyle=none;orthogonalLoop=1;jettySize=auto;html=1;rounded=0;fontSize=12;curved=1;startSize=8;endSize=8;exitX=0.5;exitY=1;exitDx=0;exitDy=0;" edge="1" parent="1" source="_A-_bPxh8dxzWCv0fmBQ-10" target="_A-_bPxh8dxzWCv0fmBQ-23">
          <mxGeometry width="120" relative="1" as="geometry">
            <mxPoint x="6" y="290.96" as="sourcePoint" />
            <mxPoint x="4" y="354.96" as="targetPoint" />
            <Array as="points" />
          </mxGeometry>
        </mxCell>
        <mxCell id="_A-_bPxh8dxzWCv0fmBQ-18" value="Signup" style="rounded=0;whiteSpace=wrap;html=1;fontSize=16;" vertex="1" parent="1">
          <mxGeometry x="-146" y="357" width="68" height="34" as="geometry" />
        </mxCell>
        <mxCell id="_A-_bPxh8dxzWCv0fmBQ-23" value="Login" style="rounded=0;whiteSpace=wrap;html=1;fontSize=16;" vertex="1" parent="1">
          <mxGeometry x="-33" y="360" width="68" height="34" as="geometry" />
        </mxCell>
        <mxCell id="_A-_bPxh8dxzWCv0fmBQ-24" value="Back" style="rounded=0;whiteSpace=wrap;html=1;fontSize=16;" vertex="1" parent="1">
          <mxGeometry x="75" y="357" width="68" height="34" as="geometry" />
        </mxCell>
        <mxCell id="_A-_bPxh8dxzWCv0fmBQ-25" value="Signup" style="rounded=0;whiteSpace=wrap;html=1;fontSize=16;" vertex="1" parent="1">
          <mxGeometry x="285" y="357" width="68" height="34" as="geometry" />
        </mxCell>
        <mxCell id="_A-_bPxh8dxzWCv0fmBQ-26" value="Login" style="rounded=0;whiteSpace=wrap;html=1;fontSize=16;" vertex="1" parent="1">
          <mxGeometry x="393" y="360" width="68" height="34" as="geometry" />
        </mxCell>
        <mxCell id="_A-_bPxh8dxzWCv0fmBQ-27" value="Back" style="rounded=0;whiteSpace=wrap;html=1;fontSize=16;" vertex="1" parent="1">
          <mxGeometry x="501" y="355" width="68" height="34" as="geometry" />
        </mxCell>
        <mxCell id="_A-_bPxh8dxzWCv0fmBQ-28" value="" style="edgeStyle=none;orthogonalLoop=1;jettySize=auto;html=1;rounded=0;fontSize=12;curved=1;startSize=8;endSize=8;exitX=0.5;exitY=1;exitDx=0;exitDy=0;entryX=0.25;entryY=0;entryDx=0;entryDy=0;" edge="1" parent="1" source="_A-_bPxh8dxzWCv0fmBQ-18" target="_A-_bPxh8dxzWCv0fmBQ-32">
          <mxGeometry width="120" relative="1" as="geometry">
            <mxPoint x="-115" y="397" as="sourcePoint" />
            <mxPoint x="-83" y="465" as="targetPoint" />
            <Array as="points" />
          </mxGeometry>
        </mxCell>
        <mxCell id="_A-_bPxh8dxzWCv0fmBQ-29" value="" style="edgeStyle=none;orthogonalLoop=1;jettySize=auto;html=1;rounded=0;fontSize=12;curved=1;startSize=8;endSize=8;exitX=0.5;exitY=1;exitDx=0;exitDy=0;entryX=0.589;entryY=0;entryDx=0;entryDy=0;entryPerimeter=0;" edge="1" parent="1" source="_A-_bPxh8dxzWCv0fmBQ-23" target="_A-_bPxh8dxzWCv0fmBQ-32">
          <mxGeometry width="120" relative="1" as="geometry">
            <mxPoint x="3" y="399" as="sourcePoint" />
            <mxPoint x="-27" y="467" as="targetPoint" />
            <Array as="points" />
          </mxGeometry>
        </mxCell>
        <mxCell id="_A-_bPxh8dxzWCv0fmBQ-30" value="" style="edgeStyle=none;orthogonalLoop=1;jettySize=auto;html=1;rounded=0;fontSize=12;curved=1;startSize=8;endSize=8;exitX=0.5;exitY=1;exitDx=0;exitDy=0;entryX=0.636;entryY=0.031;entryDx=0;entryDy=0;entryPerimeter=0;" edge="1" parent="1" source="_A-_bPxh8dxzWCv0fmBQ-26" target="_A-_bPxh8dxzWCv0fmBQ-33">
          <mxGeometry width="120" relative="1" as="geometry">
            <mxPoint x="426" y="398" as="sourcePoint" />
            <mxPoint x="397" y="468" as="targetPoint" />
            <Array as="points" />
          </mxGeometry>
        </mxCell>
        <mxCell id="_A-_bPxh8dxzWCv0fmBQ-31" value="" style="edgeStyle=none;orthogonalLoop=1;jettySize=auto;html=1;rounded=0;fontSize=12;curved=1;startSize=8;endSize=8;exitX=0.5;exitY=1;exitDx=0;exitDy=0;entryX=0.302;entryY=0.031;entryDx=0;entryDy=0;entryPerimeter=0;" edge="1" parent="1" source="_A-_bPxh8dxzWCv0fmBQ-25" target="_A-_bPxh8dxzWCv0fmBQ-33">
          <mxGeometry width="120" relative="1" as="geometry">
            <mxPoint x="316" y="394" as="sourcePoint" />
            <mxPoint x="325" y="464" as="targetPoint" />
            <Array as="points" />
          </mxGeometry>
        </mxCell>
        <mxCell id="_A-_bPxh8dxzWCv0fmBQ-32" value="Getting A User Ac No." style="rounded=0;whiteSpace=wrap;html=1;fontSize=16;" vertex="1" parent="1">
          <mxGeometry x="-111" y="466" width="129" height="65" as="geometry" />
        </mxCell>
        <mxCell id="_A-_bPxh8dxzWCv0fmBQ-39" value="" style="edgeStyle=none;curved=1;rounded=0;orthogonalLoop=1;jettySize=auto;html=1;fontSize=12;startSize=8;endSize=8;" edge="1" parent="1" source="_A-_bPxh8dxzWCv0fmBQ-33" target="_A-_bPxh8dxzWCv0fmBQ-38">
          <mxGeometry relative="1" as="geometry" />
        </mxCell>
        <mxCell id="_A-_bPxh8dxzWCv0fmBQ-33" value="Getting A User Ac No." style="rounded=0;whiteSpace=wrap;html=1;fontSize=16;" vertex="1" parent="1">
          <mxGeometry x="298" y="466" width="129" height="65" as="geometry" />
        </mxCell>
        <mxCell id="_A-_bPxh8dxzWCv0fmBQ-35" value="" style="edgeStyle=none;orthogonalLoop=1;jettySize=auto;html=1;rounded=0;fontSize=12;curved=1;startSize=8;endSize=8;exitX=0.5;exitY=1;exitDx=0;exitDy=0;entryX=0.65;entryY=0.025;entryDx=0;entryDy=0;entryPerimeter=0;" edge="1" parent="1" source="_A-_bPxh8dxzWCv0fmBQ-32" target="_A-_bPxh8dxzWCv0fmBQ-36">
          <mxGeometry width="120" relative="1" as="geometry">
            <mxPoint x="-47" y="553" as="sourcePoint" />
            <mxPoint x="-53" y="610" as="targetPoint" />
            <Array as="points" />
          </mxGeometry>
        </mxCell>
        <mxCell id="_A-_bPxh8dxzWCv0fmBQ-44" style="edgeStyle=none;curved=1;rounded=0;orthogonalLoop=1;jettySize=auto;html=1;fontSize=12;startSize=8;endSize=8;entryX=0.93;entryY=1;entryDx=0;entryDy=0;entryPerimeter=0;" edge="1" parent="1" source="_A-_bPxh8dxzWCv0fmBQ-36" target="_A-_bPxh8dxzWCv0fmBQ-32">
          <mxGeometry relative="1" as="geometry">
            <mxPoint x="124" y="620" as="targetPoint" />
            <Array as="points">
              <mxPoint x="13" y="780" />
              <mxPoint x="157" y="694" />
            </Array>
          </mxGeometry>
        </mxCell>
        <mxCell id="_A-_bPxh8dxzWCv0fmBQ-36" value="Displaying User Creds and Adding or Removing Cash" style="rounded=0;whiteSpace=wrap;html=1;fontSize=16;" vertex="1" parent="1">
          <mxGeometry x="-146" y="617" width="160" height="80" as="geometry" />
        </mxCell>
        <mxCell id="_A-_bPxh8dxzWCv0fmBQ-38" value="Just Displaying Cash and Withdrawing Cash" style="rounded=0;whiteSpace=wrap;html=1;fontSize=16;" vertex="1" parent="1">
          <mxGeometry x="290" y="614" width="160" height="80" as="geometry" />
        </mxCell>
      </root>
    </mxGraphModel>
  </diagram>
</mxfile>
